<svg width="40" height="31" viewBox="0 0 40 31" fill="none" xmlns="http://www.w3.org/2000/svg">
<g clip-path="url(#clip0_602_5416)">
<path d="M7.21558 30.8461V28.7943C7.21558 28.0076 6.74662 27.4948 5.94281 27.4948C5.54098 27.4948 5.10559 27.6316 4.80414 28.0762C4.56981 27.7 4.23495 27.4948 3.73259 27.4948C3.39758 27.4948 3.06287 27.5973 2.79483 27.9735V27.5632H2.09155V30.8461H2.79483V29.0336C2.79483 28.4524 3.09628 28.1787 3.56524 28.1787C4.03389 28.1787 4.26852 28.4865 4.26852 29.0336V30.8461H4.9718V29.0336C4.9718 28.4524 5.3065 28.1787 5.74189 28.1787C6.21085 28.1787 6.44517 28.4865 6.44517 29.0336V30.8461H7.21558ZM17.6307 27.5632H16.4922V26.5715H15.7889V27.5632H15.1526V28.2128H15.7887V29.7176C15.7887 30.47 16.0902 30.9144 16.894 30.9144C17.1954 30.9144 17.5301 30.8119 17.7648 30.6752L17.5637 30.0595C17.3628 30.1963 17.1285 30.2306 16.961 30.2306C16.6261 30.2306 16.4922 30.0254 16.4922 29.6833V28.2128H17.6307V27.5632ZM23.5919 27.4946C23.1901 27.4946 22.9222 27.7 22.7547 27.9735V27.5632H22.0514V30.8461H22.7547V28.9995C22.7547 28.4524 22.989 28.1445 23.4244 28.1445C23.5584 28.1445 23.7259 28.1788 23.8598 28.2129L24.0607 27.5291C23.9268 27.4948 23.7259 27.4948 23.5919 27.4948V27.4946ZM14.5832 27.8367C14.2482 27.5973 13.7794 27.4948 13.2771 27.4948C12.4734 27.4948 11.9376 27.9051 11.9376 28.5549C11.9376 29.1021 12.3395 29.4098 13.0427 29.5124L13.3776 29.5467C13.746 29.6149 13.9469 29.7176 13.9469 29.8886C13.9469 30.1279 13.679 30.299 13.2101 30.299C12.7413 30.299 12.3729 30.1279 12.1384 29.957L11.8035 30.5041C12.1719 30.7777 12.6743 30.9144 13.1765 30.9144C14.1143 30.9144 14.6502 30.47 14.6502 29.8544C14.6502 29.273 14.2148 28.9652 13.5449 28.8627L13.2101 28.8284C12.9086 28.7941 12.6743 28.7259 12.6743 28.5208C12.6743 28.2813 12.9086 28.1445 13.2771 28.1445C13.679 28.1445 14.0809 28.3154 14.2818 28.4181L14.5832 27.8367ZM33.2705 27.4948C32.8685 27.4948 32.6006 27.7 32.4331 27.9735V27.5632H31.7298V30.8461H32.4331V28.9995C32.4331 28.4524 32.6676 28.1445 33.1028 28.1445C33.2369 28.1445 33.4044 28.1788 33.5384 28.2129L33.7393 27.5291C33.6053 27.4948 33.4044 27.4948 33.2705 27.4948ZM24.2952 29.2046C24.2952 30.1963 24.9649 30.9144 26.0032 30.9144C26.472 30.9144 26.8069 30.8119 27.1417 30.5384L26.8069 29.957C26.539 30.1622 26.2711 30.2647 25.9697 30.2647C25.4003 30.2647 24.9985 29.8544 24.9985 29.2046C24.9985 28.5891 25.4003 28.1787 25.9697 28.1445C26.2711 28.1445 26.539 28.247 26.8069 28.4524L27.1417 27.871C26.8069 27.5973 26.472 27.4948 26.0032 27.4948C24.9649 27.4948 24.2952 28.2129 24.2952 29.2046ZM30.7922 29.2046V27.5632H30.0889V27.9735C29.8545 27.6658 29.5196 27.4948 29.0842 27.4948C28.18 27.4948 27.4767 28.2129 27.4767 29.2046C27.4767 30.1963 28.18 30.9144 29.0842 30.9144C29.553 30.9144 29.888 30.7436 30.0889 30.4357V30.8461H30.7922V29.2046ZM28.2134 29.2046C28.2134 28.6233 28.5819 28.1445 29.1846 28.1445C29.7539 28.1445 30.1559 28.5891 30.1559 29.2046C30.1559 29.786 29.7539 30.2647 29.1846 30.2647C28.5819 30.2304 28.2134 29.786 28.2134 29.2046ZM19.8076 27.4948C18.8699 27.4948 18.2 28.1787 18.2 29.2046C18.2 30.2306 18.8697 30.9144 19.841 30.9144C20.3099 30.9144 20.7788 30.7777 21.1472 30.47L20.8122 29.957C20.5443 30.1622 20.2095 30.299 19.8746 30.299C19.4392 30.299 19.0038 30.0938 18.9033 29.5123H21.2812V29.2389C21.3147 28.1787 20.712 27.4948 19.8076 27.4948ZM19.8076 28.1103C20.2429 28.1103 20.5445 28.384 20.6113 28.897H18.9369C19.0038 28.4524 19.3053 28.1103 19.8076 28.1103ZM37.2557 29.2046V26.2637H36.5524V27.9735C36.3179 27.6658 35.9831 27.4948 35.5477 27.4948C34.6435 27.4948 33.9402 28.2129 33.9402 29.2046C33.9402 30.1963 34.6435 30.9144 35.5477 30.9144C36.0166 30.9144 36.3515 30.7436 36.5524 30.4357V30.8461H37.2557V29.2046ZM34.677 29.2046C34.677 28.6233 35.0453 28.1445 35.6482 28.1445C36.2175 28.1445 36.6194 28.5891 36.6194 29.2046C36.6194 29.786 36.2175 30.2647 35.6482 30.2647C35.0453 30.2304 34.677 29.786 34.677 29.2046ZM11.1672 29.2046V27.5632H10.4639V27.9735C10.2295 27.6658 9.8946 27.4948 9.45921 27.4948C8.55501 27.4948 7.85173 28.2129 7.85173 29.2046C7.85173 30.1963 8.55501 30.9144 9.45921 30.9144C9.92816 30.9144 10.263 30.7436 10.4639 30.4357V30.8461H11.1672V29.2046ZM8.55501 29.2046C8.55501 28.6233 8.92343 28.1445 9.52618 28.1445C10.0955 28.1445 10.4975 28.5891 10.4975 29.2046C10.4975 29.786 10.0955 30.2647 9.52618 30.2647C8.92343 30.2304 8.55501 29.786 8.55501 29.2046Z" fill="white"/>
<path d="M14.3479 2.63281H24.8971V21.9885H14.3479V2.63281Z" fill="#FF5F00"/>
<path d="M15.0182 12.3111C15.0182 8.37841 16.8266 4.89021 19.6061 2.63313C17.5634 0.991688 14.9848 0 12.1717 0C5.50699 0 0.115234 5.50569 0.115234 12.3111C0.115234 19.1163 5.50699 24.6221 12.1715 24.6221C14.9846 24.6221 17.5633 23.6304 19.6061 21.9888C16.8266 19.766 15.0182 16.2437 15.0182 12.3111Z" fill="#EB001B"/>
<path d="M39.1303 12.3111C39.1303 19.1163 33.7386 24.6221 27.074 24.6221C24.2609 24.6221 21.6823 23.6304 19.6394 21.9888C22.4525 19.7319 24.2275 16.2437 24.2275 12.3111C24.2275 8.37841 22.419 4.89021 19.6394 2.63313C21.6821 0.991688 24.2609 0 27.074 0C33.7386 0 39.1303 5.53997 39.1303 12.3111Z" fill="#F79E1B"/>
</g>
<defs>
<clipPath id="clip0_602_5416">
<rect width="39.0541" height="31" fill="white" transform="translate(0.115234)"/>
</clipPath>
</defs>
</svg>
