<svg width="75" height="22" viewBox="0 0 75 22" fill="none" xmlns="http://www.w3.org/2000/svg">
<path fill-rule="evenodd" clip-rule="evenodd" d="M11.9709 2.3863C12.5535 2.38286 14.2849 2.22854 15.0183 4.67802C15.5123 6.32802 16.2992 9.0308 17.3791 12.7863H17.8189C18.9769 8.82698 19.7725 6.12421 20.2055 4.67802C20.9465 2.20302 22.7991 2.38635 23.5401 2.38635L29.2573 2.38636V19.9863H23.4302V9.61437H23.0394L19.7911 19.9863H15.4069L12.1586 9.60668H11.7678V19.9863H5.94067V2.38636L11.9709 2.3863ZM37.6249 2.38636V12.766H38.0898L42.0411 4.2309C42.8081 2.53239 44.4429 2.38636 44.4429 2.38636H50.0818V19.9864H44.133V9.60668H43.6681L39.7943 18.1418C39.0273 19.8326 37.315 19.9864 37.315 19.9864H31.6761V2.38636H37.6249ZM70.6436 10.75C69.8138 13.077 67.2079 14.7436 64.3228 14.7436H58.0843V19.9864H52.4273V10.75H70.6436Z" fill="#0F754E"/>
<path fill-rule="evenodd" clip-rule="evenodd" d="M64.5956 2.38623H52.1306C52.4273 6.30459 55.8371 9.65895 59.3669 9.65895H71.0366C71.7101 6.40234 69.3918 2.38623 64.5956 2.38623Z" fill="url(#paint0_linear_602_5421)"/>
<defs>
<linearGradient id="paint0_linear_602_5421" x1="1954.18" y1="459.872" x2="52.1306" y2="459.872" gradientUnits="userSpaceOnUse">
<stop stop-color="#1F5CD7"/>
<stop offset="1" stop-color="#02AEFF"/>
</linearGradient>
</defs>
</svg>
