<svg width="64" height="20" viewBox="0 0 64 20" fill="none" xmlns="http://www.w3.org/2000/svg">
<g clip-path="url(#clip0_602_5414)">
<path d="M32.6273 6.36811C32.5914 9.14305 35.1565 10.6915 37.0888 11.6122C39.0741 12.5568 39.741 13.1626 39.7331 14.0074C39.7183 15.3002 38.1495 15.8708 36.6815 15.8929C34.1202 15.9317 32.631 15.2168 31.4472 14.6761L30.5245 18.8975C31.7123 19.4327 33.9118 19.8994 36.1925 19.9199C41.5463 19.9199 45.0489 17.3358 45.0679 13.3293C45.0889 8.2445 37.8749 7.96305 37.9242 5.69028C37.9412 5.00113 38.6138 4.26571 40.0874 4.07872C40.8169 3.98426 42.8305 3.91197 45.1135 4.93992L46.0095 0.855585C44.7818 0.418476 43.2039 -7.82013e-05 41.2393 -7.82013e-05C36.2002 -7.82013e-05 32.6559 2.6192 32.6273 6.36811ZM54.6195 0.351728C53.6419 0.351728 52.8181 0.909319 52.4504 1.76498L44.8027 19.6199H50.1526L51.2172 16.7431H57.7547L58.3722 19.6199H63.0875L58.9728 0.351728H54.6195ZM55.3679 5.55679L56.9118 12.7922H52.6835L55.3679 5.55679ZM26.1409 0.351969L21.9239 19.6197H27.0219L31.2369 0.351488H26.1409M18.5992 0.351488L13.293 13.4664L11.1465 2.31534C10.8947 1.07052 9.90006 0.351728 8.79554 0.351728H0.121493L0 0.911247C1.78074 1.28908 3.80398 1.89848 5.02975 2.55052C5.7799 2.94884 5.99381 3.29703 6.24024 4.24354L10.3057 19.6199H15.693L23.9526 0.351728L18.5992 0.351488Z" fill="white"/>
</g>
<defs>
<clipPath id="clip0_602_5414">
<rect width="63.0875" height="20" fill="white"/>
</clipPath>
</defs>
</svg>
