<svg width="470" height="964" viewBox="0 0 470 964" fill="none" xmlns="http://www.w3.org/2000/svg">
<path d="M306.13 265.1L228.666 253.793L222.252 297.741L299.715 309.048L306.13 265.1Z" fill="white"/>
<path d="M300.117 309.587L221.722 298.145L228.272 253.265L306.668 264.707L300.117 309.587ZM222.79 297.349L299.321 308.519L305.601 265.495L229.07 254.324L222.79 297.349Z" fill="#C5C5C5"/>
<path d="M307.493 255.761L230.03 244.454L229.151 250.474L306.615 261.78L307.493 255.761Z" fill="white"/>
<path d="M307.016 262.319L228.621 250.877L229.635 243.925L308.031 255.367L307.016 262.319ZM229.689 250.08L306.22 261.251L306.963 256.164L230.432 244.993L229.689 250.08Z" fill="#C5C5C5"/>
<path d="M269.494 250.214L268.038 250.001L267.159 256.021L268.615 256.233L269.494 250.214Z" fill="white"/>
<path d="M269.008 256.771L266.62 256.423L267.635 249.471L270.023 249.82L269.008 256.771ZM267.688 255.627L268.212 255.703L268.955 250.616L268.431 250.539L267.688 255.627Z" fill="#C5C5C5"/>
<path d="M276.596 251.251L275.14 251.038L274.262 257.058L275.718 257.27L276.596 251.251Z" fill="white"/>
<path d="M276.111 257.808L273.723 257.46L274.737 250.508L277.126 250.856L276.111 257.808ZM274.791 256.663L275.315 256.74L276.057 251.653L275.533 251.576L274.791 256.663Z" fill="#C5C5C5"/>
<path d="M283.69 252.286L282.243 252.075L281.365 258.094L282.812 258.306L283.69 252.286Z" fill="white"/>
<path d="M283.205 258.843L280.825 258.496L281.84 251.544L284.219 251.892L283.205 258.843ZM281.893 257.7L282.417 257.776L283.16 252.689L282.636 252.613L281.893 257.7Z" fill="#C5C5C5"/>
<path d="M297.896 254.359L296.44 254.147L295.561 260.166L297.017 260.379L297.896 254.359Z" fill="white"/>
<path d="M297.41 260.917L295.031 260.57L296.046 253.618L298.425 253.965L297.41 260.917ZM296.09 259.772L296.614 259.849L297.357 254.761L296.833 254.685L296.09 259.772Z" fill="#C5C5C5"/>
<path d="M290.793 253.323L289.337 253.111L288.458 259.13L289.914 259.343L290.793 253.323Z" fill="white"/>
<path d="M290.307 259.88L287.919 259.532L288.934 252.58L291.322 252.928L290.307 259.88ZM288.987 258.735L289.511 258.812L290.254 253.725L289.73 253.648L288.987 258.735Z" fill="#C5C5C5"/>
<path d="M304.99 255.395L303.534 255.182L302.655 261.202L304.111 261.414L304.99 255.395Z" fill="white"/>
<path d="M304.513 261.954L302.125 261.605L303.139 254.653L305.528 255.002L304.513 261.954ZM303.193 260.809L303.717 260.885L304.459 255.798L303.935 255.722L303.193 260.809Z" fill="#C5C5C5"/>
<path d="M262.391 249.178L260.935 248.965L260.057 254.985L261.513 255.197L262.391 249.178Z" fill="white"/>
<path d="M261.906 255.735L259.526 255.388L260.541 248.436L262.92 248.783L261.906 255.735ZM260.586 254.59L261.11 254.667L261.852 249.579L261.328 249.503L260.586 254.59Z" fill="#C5C5C5"/>
<path d="M255.298 248.142L253.842 247.929L252.963 253.949L254.419 254.161L255.298 248.142Z" fill="white"/>
<path d="M254.812 254.699L252.433 254.352L253.447 247.4L255.827 247.748L254.812 254.699ZM253.492 253.555L254.016 253.631L254.758 248.544L254.234 248.467L253.492 253.555Z" fill="#C5C5C5"/>
<path d="M248.186 247.104L246.739 246.892L245.86 252.912L247.307 253.123L248.186 247.104Z" fill="white"/>
<path d="M247.709 253.662L245.33 253.315L246.344 246.363L248.724 246.71L247.709 253.662ZM246.398 252.519L246.922 252.595L247.664 247.508L247.14 247.431L246.398 252.519Z" fill="#C5C5C5"/>
<path d="M241.092 246.068L239.636 245.855L238.758 251.875L240.213 252.087L241.092 246.068Z" fill="white"/>
<path d="M240.606 252.626L238.227 252.279L239.242 245.327L241.621 245.674L240.606 252.626ZM239.286 251.481L239.81 251.558L240.553 246.47L240.029 246.394L239.286 251.481Z" fill="#C5C5C5"/>
<path d="M233.989 245.032L232.542 244.82L231.663 250.84L233.11 251.051L233.989 245.032Z" fill="white"/>
<path d="M233.513 251.591L231.133 251.244L232.148 244.292L234.527 244.639L233.513 251.591ZM232.202 250.448L232.725 250.524L233.468 245.437L232.944 245.36L232.202 250.448Z" fill="#C5C5C5"/>
<path d="M307.313 263.578L227.976 251.998L227.734 253.658L307.071 265.238L307.313 263.578Z" fill="white"/>
<path d="M307.473 265.777L227.204 254.061L227.582 251.469L307.851 263.185L307.473 265.777ZM228.272 253.265L306.677 264.709L306.783 263.981L228.378 252.537L228.272 253.265Z" fill="#C5C5C5"/>
<path d="M308.309 262.037L227.463 250.236L227.22 251.897L308.067 263.697L308.309 262.037Z" fill="white"/>
<path d="M308.461 264.226L226.683 252.289L227.061 249.697L308.839 261.633L308.461 264.226ZM227.751 251.493L307.665 263.157L307.771 262.429L227.857 250.765L227.751 251.493Z" fill="#C5C5C5"/>
<path d="M308.675 254.247L229.339 242.667L229.096 244.327L308.433 255.907L308.675 254.247Z" fill="white"/>
<path d="M308.836 256.437L228.567 244.721L228.946 242.128L309.215 253.844L308.836 256.437ZM229.635 243.925L308.04 255.369L308.146 254.641L229.742 243.197L229.635 243.925Z" fill="#C5C5C5"/>
<path d="M309.672 252.697L228.826 240.896L228.583 242.556L309.43 254.357L309.672 252.697Z" fill="white"/>
<path d="M309.824 254.886L228.046 242.949L228.424 240.357L310.203 252.293L309.824 254.886ZM229.114 242.153L309.028 253.817L309.134 253.089L229.22 241.425L229.114 242.153Z" fill="#C5C5C5"/>
<path d="M310.738 249.869L228.604 237.881L228.178 240.802L310.311 252.79L310.738 249.869Z" fill="white"/>
<path d="M310.715 253.32L227.649 241.196L228.21 237.352L311.276 249.476L310.715 253.32ZM228.717 240.4L309.918 252.252L310.209 250.263L229.007 238.411L228.717 240.4Z" fill="#C5C5C5"/>
<path d="M365.725 710.87L44.1517 663.934L7.55351 914.676L329.127 961.612L365.725 710.87Z" fill="white"/>
<path d="M329.521 962.142L7.01558 915.069L43.7499 663.395L366.256 710.467L329.521 962.142ZM8.08392 914.273L328.725 961.073L365.187 711.264L44.5461 664.463L8.08392 914.273Z" fill="#C5C5C5"/>
<path d="M370.971 674.931L49.3971 627.994L46.0136 651.175L367.587 698.112L370.971 674.931Z" fill="white"/>
<path d="M367.982 698.641L45.4761 651.568L48.9957 627.455L371.501 674.527L367.982 698.641ZM46.5445 650.772L367.186 697.573L370.433 675.324L49.7919 628.523L46.5445 650.772Z" fill="#C5C5C5"/>
<path d="M213.203 651.904L207.175 651.024L203.791 674.206L209.82 675.086L213.203 651.904Z" fill="white"/>
<path d="M210.214 675.614L203.253 674.598L206.773 650.485L213.733 651.501L210.214 675.614ZM204.321 673.802L209.418 674.546L212.665 652.297L207.569 651.553L204.321 673.802Z" fill="#C5C5C5"/>
<path d="M242.67 656.205L236.642 655.325L233.258 678.507L239.287 679.386L242.67 656.205Z" fill="white"/>
<path d="M239.69 679.916L232.729 678.9L236.249 654.787L243.209 655.803L239.69 679.916ZM233.798 678.104L238.894 678.848L242.141 656.599L237.045 655.855L233.798 678.104Z" fill="#C5C5C5"/>
<path d="M272.146 660.507L266.118 659.627L262.734 682.809L268.763 683.689L272.146 660.507Z" fill="white"/>
<path d="M269.157 684.217L262.196 683.201L265.716 659.088L272.676 660.104L269.157 684.217ZM263.264 682.405L268.361 683.149L271.608 660.9L266.512 660.156L263.264 682.405Z" fill="#C5C5C5"/>
<path d="M331.098 669.111L325.07 668.231L321.686 691.412L327.715 692.292L331.098 669.111Z" fill="white"/>
<path d="M328.109 692.821L321.148 691.805L324.668 667.692L331.629 668.708L328.109 692.821ZM322.217 691.009L327.313 691.753L330.56 669.504L325.464 668.76L322.217 691.009Z" fill="#C5C5C5"/>
<path d="M301.623 664.809L295.594 663.929L292.211 687.111L298.239 687.99L301.623 664.809Z" fill="white"/>
<path d="M298.633 688.519L291.673 687.503L295.192 663.39L302.153 664.406L298.633 688.519ZM292.741 686.707L297.837 687.451L301.084 665.202L295.988 664.458L292.741 686.707Z" fill="#C5C5C5"/>
<path d="M360.566 673.413L354.537 672.533L351.154 695.715L357.182 696.594L360.566 673.413Z" fill="white"/>
<path d="M357.585 697.125L350.625 696.109L354.144 671.995L361.105 673.011L357.585 697.125ZM351.693 695.313L356.789 696.056L360.037 673.807L354.94 673.063L351.693 695.313Z" fill="#C5C5C5"/>
<path d="M183.727 647.602L177.699 646.722L174.315 669.903L180.343 670.783L183.727 647.602Z" fill="white"/>
<path d="M180.738 671.311L173.777 670.295L177.297 646.182L184.257 647.198L180.738 671.311ZM174.846 669.499L179.942 670.243L183.189 647.994L178.093 647.25L174.846 669.499Z" fill="#C5C5C5"/>
<path d="M154.251 643.299L148.222 642.419L144.839 665.601L150.867 666.481L154.251 643.299Z" fill="white"/>
<path d="M151.262 667.009L144.301 665.993L147.821 641.88L154.781 642.896L151.262 667.009ZM145.369 665.197L150.465 665.941L153.713 643.692L148.617 642.948L145.369 665.197Z" fill="#C5C5C5"/>
<path d="M124.774 638.997L118.746 638.117L115.362 661.298L121.391 662.178L124.774 638.997Z" fill="white"/>
<path d="M121.794 662.709L114.834 661.693L118.353 637.579L125.314 638.595L121.794 662.709ZM115.902 660.897L120.998 661.64L124.246 639.391L119.149 638.647L115.902 660.897Z" fill="#C5C5C5"/>
<path d="M95.2983 634.695L89.2699 633.815L85.8864 656.996L91.9148 657.876L95.2983 634.695Z" fill="white"/>
<path d="M92.3183 658.406L85.3576 657.39L88.8772 633.276L95.8379 634.292L92.3183 658.406ZM86.4259 656.594L91.5221 657.338L94.7696 635.088L89.6734 634.345L86.4259 656.594Z" fill="#C5C5C5"/>
<path d="M65.8313 630.394L59.8029 629.514L56.4193 652.695L62.4477 653.575L65.8313 630.394Z" fill="white"/>
<path d="M62.8421 654.104L55.8814 653.088L59.401 628.974L66.3617 629.99L62.8421 654.104ZM56.9497 652.292L62.0459 653.035L65.2934 630.786L60.1972 630.042L56.9497 652.292Z" fill="#C5C5C5"/>
<path d="M370.554 705.056L41.1947 656.983L40.263 663.366L369.623 711.44L370.554 705.056Z" fill="white"/>
<path d="M370.016 711.978L39.7239 663.768L40.7917 656.453L371.084 704.662L370.016 711.978ZM40.7923 662.972L369.22 710.909L370.015 705.458L41.5879 657.521L40.7923 662.972Z" fill="#C5C5C5"/>
<path d="M374.602 699.136L39.0004 650.152L38.0686 656.535L373.67 705.52L374.602 699.136Z" fill="white"/>
<path d="M374.064 706.049L37.5305 656.929L38.5983 649.613L375.132 698.733L374.064 706.049ZM38.5988 656.132L373.268 704.981L374.063 699.529L39.3945 650.681L38.5988 656.132Z" fill="#C5C5C5"/>
<path d="M375.801 669.117L46.4408 621.044L45.5091 627.427L374.869 675.501L375.801 669.117Z" fill="white"/>
<path d="M375.263 676.029L44.9709 627.82L46.0387 620.504L376.331 668.714L375.263 676.029ZM46.0392 627.024L374.467 674.961L375.262 669.51L46.8349 621.573L46.0392 627.024Z" fill="#C5C5C5"/>
<path d="M379.848 663.188L44.2468 614.204L43.3151 620.587L378.916 669.571L379.848 663.188Z" fill="white"/>
<path d="M379.311 670.101L42.7773 620.98L43.8451 613.665L380.379 662.785L379.311 670.101ZM43.8456 620.184L378.515 669.032L379.31 663.581L44.6413 614.733L43.8456 620.184Z" fill="#C5C5C5"/>
<path d="M245.959 913.539L223.346 910.238L218.21 945.423L240.823 948.724L245.959 913.539Z" fill="white"/>
<path d="M241.226 949.254L217.681 945.817L222.951 909.709L246.496 913.146L241.226 949.254ZM218.749 945.021L240.439 948.187L245.438 913.934L223.748 910.768L218.749 945.021Z" fill="#C5C5C5"/>
<path d="M275.261 712.782L252.648 709.481L224.63 901.44L247.243 904.74L275.261 712.782Z" fill="white"/>
<path d="M247.645 905.28L224.1 901.843L252.254 708.952L275.799 712.389L247.645 905.28ZM225.168 901.047L246.858 904.213L274.741 713.177L253.051 710.012L225.168 901.047Z" fill="#C5C5C5"/>
<path d="M249.397 909.551L221.199 905.436L220.558 909.83L248.755 913.946L249.397 909.551Z" fill="white"/>
<path d="M249.157 914.486L220.027 910.234L220.805 904.907L249.935 909.159L249.157 914.486ZM221.096 909.438L248.361 913.418L248.868 909.946L221.602 905.967L221.096 909.438Z" fill="#C5C5C5"/>
<path d="M250.038 905.158L221.84 901.042L221.199 905.437L249.397 909.553L250.038 905.158Z" fill="white"/>
<path d="M249.8 910.083L220.67 905.831L221.447 900.504L250.577 904.756L249.8 910.083ZM221.738 905.035L249.004 909.015L249.51 905.543L222.245 901.564L221.738 905.035Z" fill="#C5C5C5"/>
<path d="M266.119 696.332L250.624 709.186L277.294 713.079L266.119 696.332Z" fill="white"/>
<path d="M278.264 713.701L249.507 709.503L266.212 695.638L278.256 713.699L278.264 713.701ZM251.739 708.877L276.314 712.464L266.017 697.033L251.739 708.877Z" fill="#C5C5C5"/>
<path d="M327.994 925.512L305.372 922.21L300.237 957.395L322.859 960.697L327.994 925.512Z" fill="white"/>
<path d="M323.253 961.226L299.708 957.789L304.978 921.681L328.524 925.118L323.253 961.226ZM300.767 956.992L322.457 960.158L327.457 925.905L305.767 922.739L300.767 956.992Z" fill="#C5C5C5"/>
<path d="M357.297 724.756L334.675 721.454L306.657 913.412L329.279 916.714L357.297 724.756Z" fill="white"/>
<path d="M329.671 917.252L306.126 913.815L334.28 720.924L357.826 724.361L329.671 917.252ZM307.185 913.018L328.875 916.184L356.759 725.148L335.069 721.982L307.185 913.018Z" fill="#C5C5C5"/>
<path d="M331.433 921.525L303.226 917.408L302.585 921.803L330.791 925.92L331.433 921.525Z" fill="white"/>
<path d="M331.184 926.459L302.055 922.207L302.832 916.88L331.962 921.132L331.184 926.459ZM303.114 921.409L330.388 925.39L330.895 921.919L303.621 917.938L303.114 921.409Z" fill="#C5C5C5"/>
<path d="M332.074 917.131L303.868 913.014L303.226 917.409L331.433 921.526L332.074 917.131Z" fill="white"/>
<path d="M331.827 922.055L302.697 917.803L303.475 912.476L332.604 916.728L331.827 922.055ZM303.757 917.006L331.031 920.987L331.538 917.515L304.263 913.534L303.757 917.006Z" fill="#C5C5C5"/>
<path d="M348.146 708.304L332.659 721.159L359.321 725.051L348.146 708.304Z" fill="white"/>
<path d="M360.3 725.675L331.543 721.477L348.247 707.612L360.3 725.675ZM333.774 720.851L358.35 724.438L348.052 709.007L333.774 720.851Z" fill="#C5C5C5"/>
<path d="M41.5796 883.707L18.9574 880.405L13.8218 915.59L36.444 918.892L41.5796 883.707Z" fill="white"/>
<path d="M36.8379 919.421L13.2928 915.984L18.5631 879.876L42.1083 883.313L36.8379 919.421ZM14.352 915.187L36.0419 918.353L41.0414 884.1L19.3515 880.934L14.352 915.187Z" fill="#C5C5C5"/>
<path d="M70.8817 682.95L48.2595 679.648L20.2413 871.607L42.8635 874.908L70.8817 682.95Z" fill="white"/>
<path d="M43.2561 875.447L19.711 872.01L47.8652 679.12L71.4104 682.556L43.2561 875.447ZM20.7702 871.213L42.4601 874.379L70.3436 683.344L48.6536 680.178L20.7702 871.213Z" fill="#C5C5C5"/>
<path d="M45.009 879.72L16.8025 875.603L16.161 879.997L44.3675 884.114L45.009 879.72Z" fill="white"/>
<path d="M44.7604 884.653L15.6306 880.401L16.4081 875.074L45.538 879.326L44.7604 884.653ZM16.69 879.603L43.9642 883.584L44.4709 880.113L17.1967 876.132L16.69 879.603Z" fill="#C5C5C5"/>
<path d="M45.6502 875.326L17.4437 871.209L16.8023 875.604L45.0088 879.721L45.6502 875.326Z" fill="white"/>
<path d="M45.4028 880.249L16.2729 875.997L17.0504 870.67L46.1803 874.922L45.4028 880.249ZM17.3323 875.2L44.6066 879.181L45.1133 875.709L17.839 871.728L17.3323 875.2Z" fill="#C5C5C5"/>
<path d="M61.7306 666.5L46.2353 679.354L72.9056 683.247L61.7306 666.5Z" fill="white"/>
<path d="M73.8764 683.868L45.1193 679.671L61.8322 665.807L73.8764 683.868ZM47.3508 679.044L71.926 682.631L61.6288 667.201L47.3508 679.044Z" fill="#C5C5C5"/>
<path d="M123.606 895.68L100.984 892.378L95.8488 927.563L118.471 930.865L123.606 895.68Z" fill="white"/>
<path d="M118.865 931.394L95.3199 927.957L100.59 891.849L124.136 895.286L118.865 931.394ZM96.3793 927.16L118.069 930.326L123.069 896.073L101.379 892.907L96.3793 927.16Z" fill="#C5C5C5"/>
<path d="M152.909 694.923L130.287 691.621L102.268 883.58L124.89 886.882L152.909 694.923Z" fill="white"/>
<path d="M125.284 887.42L101.738 883.983L129.892 691.092L153.438 694.529L125.284 887.42ZM102.798 883.186L124.487 886.351L152.371 695.316L130.681 692.15L102.798 883.186Z" fill="#C5C5C5"/>
<path d="M127.045 891.694L98.8384 887.577L98.1969 891.972L126.403 896.089L127.045 891.694Z" fill="white"/>
<path d="M126.796 896.626L97.6663 892.374L98.4438 887.047L127.574 891.299L126.796 896.626ZM98.7256 891.577L126 895.558L126.506 892.086L99.2322 888.105L98.7256 891.577Z" fill="#C5C5C5"/>
<path d="M127.686 887.299L99.4794 883.182L98.8379 887.577L127.044 891.694L127.686 887.299Z" fill="white"/>
<path d="M127.439 892.223L98.3091 887.972L99.0867 882.645L128.216 886.896L127.439 892.223ZM99.3684 887.174L126.643 891.155L127.149 887.683L99.8751 883.703L99.3684 887.174Z" fill="#C5C5C5"/>
<path d="M143.758 678.472L128.262 691.326L154.933 695.219L143.758 678.472Z" fill="white"/>
<path d="M155.912 695.842L127.155 691.645L143.868 677.781L155.921 695.844L155.912 695.842ZM129.377 691.017L153.953 694.604L143.656 679.174L129.377 691.017Z" fill="#C5C5C5"/>
<path d="M236.305 790.572C250.721 700.75 157.25 687.107 145.382 777.301L122.873 931.518L213.796 944.789L236.305 790.572Z" fill="white"/>
<path d="M214.201 945.31L122.345 931.903L144.922 777.224C148.051 753.426 157.368 734.574 171.158 724.146C180.107 717.382 190.623 714.474 200.771 715.955C210.919 717.437 220.174 723.231 226.807 732.269C237.042 746.203 240.581 766.931 236.777 790.632L214.202 945.301L214.201 945.31ZM123.414 931.107L213.405 944.242L235.845 790.496C239.605 767.034 236.128 746.56 226.046 732.829C219.555 723.993 210.534 718.333 200.635 716.888C190.736 715.443 180.473 718.288 171.728 724.9C158.141 735.177 148.957 753.803 145.856 777.352L123.414 931.107Z" fill="#C5C5C5"/>
<path d="M228.281 796.472C241.903 710.66 162.877 699.125 151.403 785.251L129.906 932.534L206.783 943.755L228.281 796.472Z" fill="white"/>
<path d="M207.178 944.285L129.368 932.928L150.933 785.183C154.145 761.061 163.056 742.377 176.029 732.583C183.335 727.066 191.387 724.768 199.316 725.926C207.244 727.083 214.302 731.595 219.728 738.961C229.36 752.055 232.559 772.506 228.741 796.549L207.176 944.294L207.178 944.285ZM130.436 932.132L206.381 943.217L227.811 796.395C231.593 772.601 228.449 752.393 218.968 739.512C213.693 732.349 206.852 727.969 199.181 726.849C191.51 725.729 183.693 727.971 176.6 733.328C163.831 742.971 155.053 761.429 151.866 785.311L130.436 932.132Z" fill="#C5C5C5"/>
<path d="M315.988 428.286L172.585 407.355L159.986 493.67L303.389 514.601L315.988 428.286Z" fill="white"/>
<path d="M303.783 515.13L159.448 494.063L172.183 406.816L316.518 427.883L303.783 515.13ZM160.516 493.267L302.987 514.062L315.45 428.679L172.979 407.884L160.516 493.267Z" fill="#C5C5C5"/>
<path d="M318.327 412.261L174.924 391.33L173.416 401.664L316.819 422.595L318.327 412.261Z" fill="white"/>
<path d="M317.213 423.124L172.878 402.057L174.522 390.79L318.857 411.857L317.213 423.124ZM173.946 401.261L316.417 422.055L317.789 412.653L175.318 391.858L173.946 401.261Z" fill="#C5C5C5"/>
<path d="M247.975 401.993L245.285 401.601L243.777 411.935L246.467 412.328L247.975 401.993Z" fill="white"/>
<path d="M246.861 412.856L243.239 412.327L244.883 401.06L248.505 401.589L246.861 412.856ZM244.307 411.531L246.065 411.787L247.437 402.385L245.679 402.129L244.307 411.531Z" fill="#C5C5C5"/>
<path d="M261.115 403.91L258.424 403.518L256.916 413.852L259.606 414.245L261.115 403.91Z" fill="white"/>
<path d="M260.001 414.774L256.378 414.245L258.023 402.978L261.645 403.507L260.001 414.774ZM257.447 413.449L259.205 413.705L260.577 404.303L258.819 404.047L257.447 413.449Z" fill="#C5C5C5"/>
<path d="M274.255 405.829L271.565 405.436L270.056 415.77L272.746 416.163L274.255 405.829Z" fill="white"/>
<path d="M273.141 416.692L269.518 416.163L271.163 404.896L274.785 405.425L273.141 416.692ZM270.587 415.367L272.344 415.623L273.717 406.221L271.959 405.965L270.587 415.367Z" fill="#C5C5C5"/>
<path d="M300.544 409.665L297.854 409.273L296.345 419.607L299.035 420L300.544 409.665Z" fill="white"/>
<path d="M299.43 420.528L295.807 420L297.452 408.733L301.074 409.262L299.43 420.528ZM296.875 419.204L298.633 419.46L300.006 410.058L298.248 409.801L296.875 419.204Z" fill="#C5C5C5"/>
<path d="M287.404 407.748L284.714 407.355L283.205 417.689L285.896 418.082L287.404 407.748Z" fill="white"/>
<path d="M286.289 418.61L282.667 418.082L284.312 406.815L287.934 407.344L286.289 418.61ZM283.735 417.286L285.493 417.542L286.866 408.14L285.108 407.884L283.735 417.286Z" fill="#C5C5C5"/>
<path d="M313.684 411.584L310.994 411.192L309.485 421.526L312.175 421.919L313.684 411.584Z" fill="white"/>
<path d="M312.578 422.448L308.956 421.919L310.6 410.653L314.223 411.181L312.578 422.448ZM310.024 421.123L311.782 421.38L313.154 411.978L311.397 411.721L310.024 421.123Z" fill="#C5C5C5"/>
<path d="M234.826 400.073L232.136 399.681L230.628 410.015L233.318 410.408L234.826 400.073Z" fill="white"/>
<path d="M233.712 410.936L230.09 410.408L231.734 399.141L235.356 399.67L233.712 410.936ZM231.158 409.612L232.916 409.868L234.288 400.466L232.53 400.209L231.158 409.612Z" fill="#C5C5C5"/>
<path d="M221.686 398.156L218.996 397.763L217.487 408.097L220.178 408.49L221.686 398.156Z" fill="white"/>
<path d="M220.572 409.019L216.95 408.49L218.594 397.223L222.217 397.752L220.572 409.019ZM218.018 407.694L219.776 407.95L221.148 398.548L219.39 398.292L218.018 407.694Z" fill="#C5C5C5"/>
<path d="M208.537 396.237L205.847 395.844L204.339 406.179L207.029 406.571L208.537 396.237Z" fill="white"/>
<path d="M207.432 407.101L203.81 406.572L205.454 395.305L209.077 395.834L207.432 407.101ZM204.878 405.776L206.636 406.032L208.008 396.63L206.25 396.374L204.878 405.776Z" fill="#C5C5C5"/>
<path d="M195.397 394.318L192.707 393.926L191.199 404.26L193.889 404.653L195.397 394.318Z" fill="white"/>
<path d="M194.283 405.182L190.661 404.653L192.305 393.386L195.928 393.915L194.283 405.182ZM191.729 403.857L193.487 404.113L194.86 394.711L193.102 394.455L191.729 403.857Z" fill="#C5C5C5"/>
<path d="M182.257 392.4L179.567 392.008L178.059 402.342L180.749 402.735L182.257 392.4Z" fill="white"/>
<path d="M181.143 403.263L177.521 402.735L179.166 391.468L182.788 391.997L181.143 403.263ZM178.589 401.938L180.347 402.195L181.72 392.793L179.962 392.536L178.589 401.938Z" fill="#C5C5C5"/>
<path d="M318.135 425.689L171.261 404.252L170.845 407.102L317.719 428.539L318.135 425.689Z" fill="white"/>
<path d="M318.122 429.069L170.316 407.496L170.868 403.713L318.674 425.287L318.122 429.069ZM171.384 406.699L317.326 428.001L317.606 426.083L171.664 404.782L171.384 406.699Z" fill="#C5C5C5"/>
<path d="M319.952 423.053L170.29 401.208L169.874 404.058L319.536 425.903L319.952 423.053Z" fill="white"/>
<path d="M319.931 426.432L169.345 404.452L169.896 400.679L320.482 422.659L319.931 426.432ZM170.405 403.655L319.135 425.364L319.415 423.446L170.685 401.737L170.405 403.655Z" fill="#C5C5C5"/>
<path d="M320.474 409.663L173.6 388.225L173.184 391.075L320.058 412.513L320.474 409.663Z" fill="white"/>
<path d="M320.461 413.043L172.655 391.47L173.206 387.696L321.012 409.27L320.461 413.043ZM173.723 390.673L319.665 411.975L319.945 410.057L174.003 388.756L173.723 390.673Z" fill="#C5C5C5"/>
<path d="M322.293 407.018L172.631 385.173L172.215 388.023L321.877 409.868L322.293 407.018Z" fill="white"/>
<path d="M322.271 410.397L171.686 388.418L172.236 384.644L322.822 406.624L322.271 410.397ZM172.745 387.62L321.475 409.329L321.755 407.411L173.025 385.702L172.745 387.62Z" fill="#C5C5C5"/>
<path d="M309.09 334.029L206.128 319L196.603 384.256L299.565 399.285L309.09 334.029Z" fill="white"/>
<path d="M299.969 399.815L196.074 384.65L205.735 318.462L309.629 333.627L299.969 399.815ZM197.143 383.854L299.172 398.746L308.561 334.423L206.531 319.53L197.143 383.854Z" fill="#C5C5C5"/>
<path d="M311.112 320.169L208.15 305.141L206.845 314.081L309.807 329.11L311.112 320.169Z" fill="white"/>
<path d="M310.211 329.641L206.316 314.476L207.757 304.604L311.652 319.768L310.211 329.641ZM207.385 313.68L309.415 328.572L310.583 320.564L208.554 305.672L207.385 313.68Z" fill="#C5C5C5"/>
<path d="M260.595 312.795L258.669 312.514L257.364 321.455L259.29 321.736L260.595 312.795Z" fill="white"/>
<path d="M259.693 322.266L256.834 321.849L258.275 311.976L261.134 312.394L259.693 322.266ZM257.903 321.053L258.906 321.199L260.075 313.191L259.071 313.045L257.903 321.053Z" fill="#C5C5C5"/>
<path d="M270.041 314.174L268.106 313.892L266.801 322.832L268.736 323.115L270.041 314.174Z" fill="white"/>
<path d="M269.131 323.644L266.272 323.227L267.713 313.354L270.572 313.772L269.131 323.644ZM267.341 322.431L268.344 322.577L269.513 314.569L268.509 314.423L267.341 322.431Z" fill="#C5C5C5"/>
<path d="M279.471 315.55L277.544 315.269L276.239 324.21L278.166 324.491L279.471 315.55Z" fill="white"/>
<path d="M278.569 325.021L275.71 324.604L277.151 314.731L280.01 315.148L278.569 325.021ZM276.778 323.808L277.773 323.953L278.941 315.945L277.947 315.799L276.778 323.808Z" fill="#C5C5C5"/>
<path d="M298.346 318.306L296.419 318.025L295.114 326.965L297.041 327.246L298.346 318.306Z" fill="white"/>
<path d="M297.444 327.777L294.585 327.36L296.026 317.487L298.885 317.904L297.444 327.777ZM295.644 326.562L296.648 326.709L297.817 318.7L296.813 318.554L295.644 326.562Z" fill="#C5C5C5"/>
<path d="M288.917 316.929L286.981 316.646L285.676 325.587L287.612 325.869L288.917 316.929Z" fill="white"/>
<path d="M288.006 326.399L285.147 325.981L286.588 316.109L289.447 316.526L288.006 326.399ZM286.207 325.184L287.21 325.33L288.379 317.322L287.375 317.176L286.207 325.184Z" fill="#C5C5C5"/>
<path d="M307.783 319.683L305.857 319.401L304.552 328.342L306.478 328.623L307.783 319.683Z" fill="white"/>
<path d="M306.882 329.154L304.023 328.737L305.464 318.864L308.323 319.282L306.882 329.154ZM305.091 327.941L306.085 328.086L307.254 320.078L306.26 319.933L305.091 327.941Z" fill="#C5C5C5"/>
<path d="M251.157 311.418L249.231 311.137L247.926 320.077L249.852 320.358L251.157 311.418Z" fill="white"/>
<path d="M250.256 320.889L247.397 320.472L248.838 310.599L251.697 311.016L250.256 320.889ZM248.465 319.676L249.46 319.821L250.628 311.813L249.634 311.667L248.465 319.676Z" fill="#C5C5C5"/>
<path d="M241.728 310.042L239.793 309.759L238.488 318.7L240.423 318.982L241.728 310.042Z" fill="white"/>
<path d="M240.818 319.512L237.959 319.094L239.4 309.222L242.259 309.639L240.818 319.512ZM239.028 318.298L240.031 318.445L241.2 310.436L240.196 310.29L239.028 318.298Z" fill="#C5C5C5"/>
<path d="M232.282 308.663L230.355 308.382L229.05 317.322L230.977 317.604L232.282 308.663Z" fill="white"/>
<path d="M231.38 318.133L228.521 317.716L229.962 307.844L232.821 308.261L231.38 318.133ZM229.589 316.92L230.593 317.067L231.762 309.058L230.758 308.912L229.589 316.92Z" fill="#C5C5C5"/>
<path d="M222.853 307.287L220.926 307.006L219.621 315.946L221.548 316.227L222.853 307.287Z" fill="white"/>
<path d="M221.942 316.756L219.084 316.339L220.525 306.466L223.383 306.883L221.942 316.756ZM220.152 315.543L221.146 315.688L222.315 307.679L221.321 307.534L220.152 315.543Z" fill="#C5C5C5"/>
<path d="M213.416 305.909L211.489 305.628L210.184 314.568L212.111 314.85L213.416 305.909Z" fill="white"/>
<path d="M212.505 315.379L209.646 314.961L211.087 305.089L213.946 305.506L212.505 315.379ZM210.705 314.164L211.709 314.31L212.877 306.302L211.874 306.156L210.705 314.164Z" fill="#C5C5C5"/>
<path d="M310.7 331.752L205.243 316.36L204.884 318.819L310.341 334.211L310.7 331.752Z" fill="white"/>
<path d="M310.736 334.74L204.347 319.212L204.842 315.82L311.231 331.349L310.736 334.74ZM205.415 318.415L309.94 333.672L310.163 332.145L205.638 316.888L205.415 318.415Z" fill="#C5C5C5"/>
<path d="M312.063 329.439L204.608 313.755L204.249 316.214L311.704 331.898L312.063 329.439Z" fill="white"/>
<path d="M312.098 332.427L203.712 316.607L204.207 313.216L312.593 329.036L312.098 332.427ZM204.78 315.811L311.302 331.359L311.525 329.832L205.003 314.284L204.78 315.811Z" fill="#C5C5C5"/>
<path d="M312.724 317.893L207.267 302.5L206.908 304.96L312.365 320.352L312.724 317.893Z" fill="white"/>
<path d="M312.759 320.881L206.37 305.353L206.865 301.961L313.254 317.49L312.759 320.881ZM207.438 304.557L311.963 319.813L312.186 318.286L207.661 303.029L207.438 304.557Z" fill="#C5C5C5"/>
<path d="M314.087 315.571L206.632 299.887L206.273 302.346L313.728 318.03L314.087 315.571Z" fill="white"/>
<path d="M314.121 318.568L205.734 302.748L206.229 299.357L314.616 315.177L314.121 318.568ZM206.803 301.952L313.325 317.5L313.548 315.973L207.026 300.425L206.803 301.952Z" fill="#C5C5C5"/>
<path d="M317.652 549.208L136.437 522.758L122.077 621.139L303.293 647.589L317.652 549.208Z" fill="white"/>
<path d="M303.686 648.127L121.538 621.541L136.033 522.228L318.181 548.814L303.686 648.127ZM122.606 620.744L302.889 647.059L317.114 549.601L136.831 523.287L122.606 620.744Z" fill="#C5C5C5"/>
<path d="M320.608 528.956L139.392 502.505L137.486 515.565L318.702 542.016L320.608 528.956Z" fill="white"/>
<path d="M319.096 542.545L136.948 515.959L138.99 501.967L321.138 528.553L319.096 542.545ZM138.016 515.163L318.3 541.477L320.07 529.349L139.786 503.035L138.016 515.163Z" fill="#C5C5C5"/>
<path d="M231.701 515.979L228.3 515.483L226.394 528.543L229.794 529.039L231.701 515.979Z" fill="white"/>
<path d="M230.188 529.568L225.864 528.937L227.907 514.944L232.231 515.575L230.188 529.568ZM226.924 528.139L229.392 528.499L231.162 516.372L228.694 516.011L226.924 528.139Z" fill="#C5C5C5"/>
<path d="M248.303 518.403L244.902 517.906L242.996 530.966L246.397 531.463L248.303 518.403Z" fill="white"/>
<path d="M246.791 531.991L242.467 531.36L244.509 517.368L248.833 517.999L246.791 531.991ZM243.527 530.563L245.995 530.923L247.765 518.795L245.297 518.435L243.527 530.563Z" fill="#C5C5C5"/>
<path d="M264.905 520.826L261.514 520.331L259.608 533.391L262.999 533.886L264.905 520.826Z" fill="white"/>
<path d="M263.402 534.415L259.078 533.784L261.121 519.792L265.445 520.423L263.402 534.415ZM260.147 532.988L262.606 533.347L264.376 521.219L261.917 520.86L260.147 532.988Z" fill="#C5C5C5"/>
<path d="M298.137 525.675L294.737 525.179L292.831 538.239L296.231 538.736L298.137 525.675Z" fill="white"/>
<path d="M296.625 539.264L292.301 538.633L294.344 524.641L298.667 525.272L296.625 539.264ZM293.361 537.836L295.829 538.196L297.599 526.068L295.131 525.708L293.361 537.836Z" fill="#C5C5C5"/>
<path d="M281.526 523.251L278.125 522.755L276.219 535.815L279.62 536.311L281.526 523.251Z" fill="white"/>
<path d="M280.014 536.84L275.69 536.209L277.733 522.217L282.056 522.848L280.014 536.84ZM276.749 535.412L279.218 535.772L280.988 523.644L278.52 523.284L276.749 535.412Z" fill="#C5C5C5"/>
<path d="M314.748 528.1L311.348 527.604L309.442 540.664L312.842 541.16L314.748 528.1Z" fill="white"/>
<path d="M313.236 541.689L308.904 541.057L310.946 527.064L315.278 527.697L313.236 541.689ZM309.972 540.261L312.44 540.621L314.21 528.493L311.742 528.133L309.972 540.261Z" fill="#C5C5C5"/>
<path d="M215.089 513.554L211.689 513.058L209.783 526.118L213.183 526.614L215.089 513.554Z" fill="white"/>
<path d="M213.577 527.143L209.245 526.511L211.287 512.519L215.619 513.151L213.577 527.143ZM210.313 525.715L212.781 526.075L214.551 513.947L212.083 513.587L210.313 525.715Z" fill="#C5C5C5"/>
<path d="M198.477 511.13L195.077 510.633L193.171 523.693L196.571 524.19L198.477 511.13Z" fill="white"/>
<path d="M196.966 524.719L192.642 524.087L194.684 510.095L199.008 510.726L196.966 524.719ZM193.701 523.29L196.169 523.65L197.94 511.522L195.472 511.162L193.701 523.29Z" fill="#C5C5C5"/>
<path d="M181.866 508.705L178.466 508.209L176.559 521.269L179.96 521.765L181.866 508.705Z" fill="white"/>
<path d="M180.354 522.294L176.031 521.663L178.073 507.671L182.397 508.302L180.354 522.294ZM177.09 520.865L179.558 521.226L181.328 509.098L178.86 508.738L177.09 520.865Z" fill="#C5C5C5"/>
<path d="M165.264 506.282L161.863 505.786L159.957 518.846L163.358 519.342L165.264 506.282Z" fill="white"/>
<path d="M163.752 519.871L159.428 519.24L161.47 505.247L165.794 505.878L163.752 519.871ZM160.487 518.442L162.956 518.802L164.726 506.675L162.258 506.314L160.487 518.442Z" fill="#C5C5C5"/>
<path d="M148.652 503.858L145.252 503.361L143.346 516.421L146.746 516.918L148.652 503.858Z" fill="white"/>
<path d="M147.141 517.446L142.808 516.814L144.85 502.822L149.183 503.454L147.141 517.446ZM143.876 516.018L146.344 516.378L148.115 504.25L145.646 503.89L143.876 516.018Z" fill="#C5C5C5"/>
<path d="M320.37 545.932L134.768 518.842L134.243 522.438L319.845 549.528L320.37 545.932Z" fill="white"/>
<path d="M320.24 550.057L133.706 522.831L134.367 518.303L320.901 545.529L320.24 550.057ZM134.774 522.035L319.444 548.989L319.832 546.325L135.163 519.371L134.774 522.035Z" fill="#C5C5C5"/>
<path d="M322.643 542.591L133.526 514.988L133.001 518.584L322.119 546.187L322.643 542.591Z" fill="white"/>
<path d="M322.522 546.717L132.472 518.977L133.133 514.449L323.183 542.189L322.522 546.717ZM133.54 518.181L321.735 545.65L322.123 542.986L133.929 515.518L133.54 518.181Z" fill="#C5C5C5"/>
<path d="M323.327 525.672L137.725 498.581L137.2 502.177L322.802 529.267L323.327 525.672Z" fill="white"/>
<path d="M323.195 529.805L136.661 502.579L137.322 498.051L323.856 525.277L323.195 529.805ZM137.73 501.783L322.399 528.737L322.788 526.074L138.118 499.119L137.73 501.783Z" fill="#C5C5C5"/>
<path d="M325.601 522.331L136.484 494.727L135.959 498.323L325.076 525.927L325.601 522.331Z" fill="white"/>
<path d="M325.478 526.466L135.428 498.726L136.089 494.198L326.139 521.938L325.478 526.466ZM136.497 497.93L324.691 525.399L325.079 522.736L136.885 495.267L136.497 497.93Z" fill="#C5C5C5"/>
<path d="M249.9 597.351L227.456 594.075L221.39 635.634L243.834 638.91L249.9 597.351Z" fill="white"/>
<path d="M244.227 639.448L220.85 636.036L227.052 593.544L250.429 596.956L244.227 639.448ZM221.919 635.24L243.431 638.379L249.361 597.752L227.849 594.612L221.919 635.24Z" fill="#C5C5C5"/>
<path d="M246.317 609.786C248.254 596.639 229.218 593.861 227.317 607.012L223.529 632.964L242.529 635.737L246.317 609.786Z" fill="white"/>
<path d="M242.932 636.268L223.009 633.36L226.864 606.947C227.306 603.919 228.66 601.478 230.797 599.886C232.872 598.339 235.616 597.679 238.333 598.075C241.05 598.472 243.491 599.889 245.038 601.964C246.63 604.101 247.238 606.828 246.788 609.855L242.932 636.268ZM224.069 632.562L242.136 635.199L245.857 609.71C246.261 606.94 245.718 604.448 244.286 602.517C242.892 600.636 240.666 599.359 238.198 598.998C235.73 598.638 233.231 599.235 231.359 600.63C229.426 602.07 228.195 604.294 227.798 607.074L224.078 632.564L224.069 632.562Z" fill="#C5C5C5"/>
<path d="M210.045 591.533L187.6 588.257L181.534 629.817L203.979 633.093L210.045 591.533Z" fill="white"/>
<path d="M204.372 633.631L180.995 630.219L187.198 587.728L210.574 591.14L204.372 633.631ZM182.064 629.423L203.576 632.563L209.506 591.936L187.994 588.796L182.064 629.423Z" fill="#C5C5C5"/>
<path d="M206.462 603.969C208.399 590.823 189.364 588.044 187.462 601.196L183.675 627.147L202.674 629.92L206.462 603.969Z" fill="white"/>
<path d="M203.077 630.451L183.154 627.543L187.009 601.13C187.451 598.102 188.805 595.661 190.942 594.069C193.017 592.522 195.761 591.862 198.478 592.258C201.195 592.655 203.645 594.073 205.183 596.147C206.775 598.284 207.383 601.011 206.932 604.038L203.077 630.451ZM184.214 626.745L202.281 629.382L206.001 603.893C206.406 601.123 205.863 598.631 204.431 596.7C203.036 594.828 200.811 593.542 198.343 593.182C195.875 592.821 193.376 593.418 191.504 594.813C189.571 596.254 188.338 598.486 187.943 601.257L184.223 626.747L184.214 626.745Z" fill="#C5C5C5"/>
<path d="M289.755 603.168L267.311 599.892L261.245 641.452L283.689 644.728L289.755 603.168Z" fill="white"/>
<path d="M284.082 645.266L260.714 641.855L266.916 599.363L290.284 602.774L284.082 645.266ZM261.774 641.058L283.286 644.197L289.216 603.57L267.703 600.43L261.774 641.058Z" fill="#C5C5C5"/>
<path d="M286.172 615.603C288.109 602.457 269.074 599.678 267.173 612.83L263.385 638.781L282.384 641.554L286.172 615.603Z" fill="white"/>
<path d="M282.787 642.085L262.864 639.177L266.719 612.764C267.161 609.736 268.515 607.295 270.652 605.703C272.727 604.156 275.471 603.496 278.188 603.892C280.905 604.289 283.355 605.707 284.892 607.782C286.485 609.918 287.084 612.644 286.642 615.672L282.787 642.085ZM263.924 638.38L281.991 641.017L285.711 615.527C286.116 612.757 285.573 610.266 284.141 608.334C282.747 606.453 280.521 605.176 278.053 604.816C275.585 604.456 273.086 605.052 271.214 606.447C269.281 607.888 268.05 610.111 267.653 612.891L263.933 638.381L263.924 638.38Z" fill="#C5C5C5"/>
<path d="M170.181 585.714L147.746 582.439L141.68 623.999L164.115 627.274L170.181 585.714Z" fill="white"/>
<path d="M164.518 627.813L141.15 624.402L147.352 581.911L170.72 585.321L164.518 627.813ZM142.218 623.606L163.73 626.746L169.66 586.119L148.148 582.979L142.218 623.606Z" fill="#C5C5C5"/>
<path d="M166.608 598.151C168.544 585.005 149.509 582.226 147.608 595.378L143.82 621.329L162.82 624.102L166.608 598.151Z" fill="white"/>
<path d="M163.222 624.633L143.299 621.725L147.155 595.312C147.596 592.284 148.95 589.843 151.087 588.251C153.162 586.704 155.907 586.044 158.623 586.44C161.34 586.837 163.79 588.255 165.328 590.33C166.92 592.466 167.528 595.194 167.078 598.22L163.222 624.633ZM144.359 620.927L162.426 623.565L166.147 598.075C166.551 595.305 166.008 592.814 164.576 590.882C163.181 589.01 160.957 587.724 158.489 587.364C156.02 587.003 153.521 587.6 151.649 588.995C149.716 590.436 148.484 592.668 148.088 595.439L144.368 620.929L144.359 620.927Z" fill="#C5C5C5"/>
<path d="M292.119 459.121L269.684 455.847L263.618 497.406L286.053 500.681L292.119 459.121Z" fill="white"/>
<path d="M286.456 501.211L263.089 497.8L269.291 455.309L292.658 458.719L286.456 501.211ZM264.157 497.004L285.66 500.143L291.591 459.507L270.088 456.368L264.157 497.004Z" fill="#C5C5C5"/>
<path d="M288.555 471.548C290.492 458.402 271.457 455.624 269.555 468.775L265.768 494.727L284.767 497.5L288.555 471.548Z" fill="white"/>
<path d="M285.16 498.038L265.228 495.129L269.085 468.707C269.527 465.679 270.88 463.238 273.017 461.646C275.093 460.099 277.837 459.439 280.553 459.835C283.27 460.232 285.72 461.65 287.258 463.725C288.85 465.861 289.459 468.589 289.008 471.615L285.151 498.037L285.16 498.038ZM266.297 494.333L284.364 496.97L288.085 471.48C288.489 468.71 287.946 466.219 286.514 464.287C285.12 462.406 282.894 461.129 280.426 460.769C277.958 460.409 275.459 461.005 273.587 462.4C271.654 463.841 270.421 466.073 270.026 468.844L266.305 494.334L266.297 494.333Z" fill="#C5C5C5"/>
<path d="M209.08 447.001L186.635 443.725L180.569 485.285L203.014 488.561L209.08 447.001Z" fill="white"/>
<path d="M203.408 489.09L180.04 485.679L186.242 443.187L209.61 446.598L203.408 489.09ZM181.1 484.882L202.612 488.021L208.543 447.385L187.031 444.245L181.1 484.882Z" fill="#C5C5C5"/>
<path d="M205.507 459.427C207.444 446.281 188.409 443.503 186.516 456.655L182.728 482.607L201.719 485.379L205.507 459.427Z" fill="white"/>
<path d="M202.112 485.917L182.189 483.009L186.046 456.587C186.488 453.559 187.841 451.118 189.978 449.526C192.053 447.979 194.797 447.319 197.514 447.715C200.231 448.112 202.672 449.529 204.219 451.604C205.811 453.741 206.419 456.468 205.969 459.495L202.112 485.917ZM183.257 482.213L201.325 484.85L205.045 459.36C205.451 456.581 204.906 454.099 203.475 452.167C202.08 450.295 199.855 449.009 197.387 448.649C194.919 448.288 192.42 448.885 190.548 450.28C188.615 451.721 187.382 453.953 186.987 456.724L183.266 482.214L183.257 482.213Z" fill="#C5C5C5"/>
<path d="M250.595 453.061L228.16 449.786L222.094 491.346L244.529 494.621L250.595 453.061Z" fill="white"/>
<path d="M244.932 495.151L221.565 491.74L227.767 449.248L251.134 452.659L244.932 495.151ZM222.633 490.944L244.136 494.082L250.067 453.446L228.564 450.307L222.633 490.944Z" fill="#C5C5C5"/>
<path d="M247.031 465.489C248.968 452.342 229.933 449.564 228.031 462.715L224.244 488.667L243.243 491.44L247.031 465.489Z" fill="white"/>
<path d="M243.636 491.978L223.704 489.069L227.561 462.647C228.003 459.62 229.356 457.178 231.493 455.586C233.569 454.039 236.313 453.379 239.029 453.776C241.746 454.172 244.196 455.591 245.734 457.665C247.326 459.801 247.935 462.529 247.484 465.555L243.627 491.977L243.636 491.978ZM224.773 488.273L242.84 490.91L246.561 465.42C246.965 462.65 246.422 460.159 244.99 458.227C243.596 456.346 241.37 455.069 238.902 454.709C236.434 454.349 233.935 454.945 232.063 456.34C230.13 457.781 228.897 460.013 228.502 462.784L224.782 488.274L224.773 488.273Z" fill="#C5C5C5"/>
<path d="M243.967 334.399L221.523 331.123L215.457 372.682L237.901 375.958L243.967 334.399Z" fill="white"/>
<path d="M238.295 376.496L214.927 373.085L221.129 330.594L244.497 334.004L238.295 376.496ZM215.986 372.288L237.499 375.428L243.429 334.8L221.916 331.66L215.986 372.288Z" fill="#C5C5C5"/>
<path d="M239.967 349.755C241.904 336.609 222.869 333.83 220.967 346.982L217.18 372.933L236.179 375.706L239.967 349.755Z" fill="white"/>
<path d="M236.572 376.245L216.649 373.337L220.506 346.915C220.948 343.887 222.301 341.446 224.438 339.854C226.513 338.307 229.258 337.647 231.974 338.043C234.691 338.44 237.141 339.858 238.679 341.933C240.271 344.069 240.879 346.797 240.429 349.823L236.573 376.236L236.572 376.245ZM217.709 372.539L235.776 375.176L239.496 349.687C239.901 346.917 239.358 344.425 237.926 342.494C236.531 340.622 234.306 339.336 231.838 338.976C229.37 338.615 226.871 339.212 224.999 340.607C223.066 342.048 221.835 344.271 221.438 347.051L217.718 372.541L217.709 372.539Z" fill="#C5C5C5"/>
<path d="M290.881 341.246L268.436 337.97L262.37 379.53L284.815 382.806L290.881 341.246Z" fill="white"/>
<path d="M285.208 383.343L261.831 379.931L268.033 337.439L291.41 340.852L285.208 383.343ZM262.899 379.135L284.412 382.275L290.341 341.648L268.829 338.508L262.899 379.135Z" fill="#C5C5C5"/>
<path d="M286.88 356.603C288.817 343.456 269.782 340.678 267.881 353.829L264.093 379.781L283.092 382.554L286.88 356.603Z" fill="white"/>
<path d="M283.486 383.092L263.563 380.184L267.419 353.762C267.861 350.734 269.215 348.293 271.351 346.701C273.427 345.154 276.171 344.494 278.888 344.89C281.605 345.287 284.054 346.705 285.592 348.78C287.185 350.916 287.793 353.644 287.342 356.67L283.487 383.083L283.486 383.092ZM264.622 379.386L282.689 382.023L286.41 356.534C286.814 353.764 286.271 351.272 284.839 349.341C283.444 347.469 281.22 346.183 278.752 345.823C276.284 345.462 273.785 346.059 271.913 347.454C269.979 348.895 268.748 351.118 268.351 353.898L264.631 379.388L264.622 379.386Z" fill="#C5C5C5"/>
<path d="M275.983 266.821L259.097 264.356L254.533 295.626L271.419 298.091L275.983 266.821Z" fill="white"/>
<path d="M271.813 298.62L254.003 296.02L258.704 263.819L276.514 266.418L271.813 298.62ZM255.063 295.223L271.017 297.552L275.445 267.214L259.491 264.886L255.063 295.223Z" fill="#C5C5C5"/>
<path d="M272.973 278.378C274.434 268.49 260.113 266.399 258.679 276.291L255.829 295.815L270.123 297.901L272.973 278.378Z" fill="white"/>
<path d="M270.517 298.43L255.291 296.208L258.209 276.214C258.546 273.906 259.58 272.044 261.218 270.823C262.805 269.64 264.9 269.139 266.978 269.442C269.055 269.745 270.92 270.824 272.102 272.411C273.314 274.048 273.781 276.129 273.444 278.438L270.526 298.432L270.517 298.43ZM256.359 295.412L269.721 297.362L272.503 278.3C272.804 276.241 272.401 274.405 271.339 272.98C270.308 271.596 268.671 270.641 266.833 270.373C264.995 270.105 263.162 270.544 261.769 271.583C260.344 272.645 259.432 274.298 259.133 276.349L256.35 295.411L256.359 295.412Z" fill="#C5C5C5"/>
<path d="M380.481 658.855L44.8793 609.871L44.2469 614.203L379.848 663.187L380.481 658.855Z" fill="white"/>
<path d="M380.241 663.725L43.7076 614.605L44.4761 609.34L381.01 658.461L380.241 663.725ZM44.776 613.809L379.445 662.657L379.941 659.257L45.2723 610.409L44.776 613.809Z" fill="#C5C5C5"/>
<path d="M326.233 517.998L137.116 490.395L136.483 494.727L325.601 522.331L326.233 517.998Z" fill="white"/>
<path d="M326.002 522.87L135.953 495.131L136.721 489.866L326.771 517.605L326.002 522.87ZM137.021 494.334L325.215 521.803L325.711 518.403L137.517 490.934L137.021 494.334Z" fill="#C5C5C5"/>
<path d="M322.924 402.694L173.262 380.849L172.629 385.182L322.292 407.026L322.924 402.694Z" fill="white"/>
<path d="M322.686 407.556L172.1 385.577L172.869 380.312L323.455 402.291L322.686 407.556ZM173.16 384.779L321.89 406.488L322.386 403.087L173.656 381.379L173.16 384.779Z" fill="#C5C5C5"/>
<path d="M315.579 311.373L206.402 295.438L205.77 299.771L314.947 315.706L315.579 311.373Z" fill="white"/>
<path d="M315.341 316.235L205.232 300.164L206.001 294.899L316.11 310.97L315.341 316.235ZM206.3 299.367L314.545 315.167L315.041 311.766L206.797 295.967L206.3 299.367Z" fill="#C5C5C5"/>
<path d="M294.45 171.796L266.537 167.722L233.452 238.589L305.899 249.163L294.45 171.796Z" fill="white"/>
<path d="M306.461 249.725L232.753 238.967L266.258 167.21L294.864 171.385L294.913 171.728L306.452 249.724L306.461 249.725ZM234.141 238.217L305.345 248.61L294.035 172.216L266.805 168.242L234.141 238.217Z" fill="#C5C5C5"/>
<path d="M285.057 170.425L275.93 169.093L257.841 242.148L281.51 245.603L285.057 170.425Z" fill="white"/>
<path d="M281.956 246.149L257.266 242.545L257.394 242.038L275.589 168.572L285.55 170.026L285.534 170.449L281.965 246.15L281.956 246.149ZM258.423 241.761L281.062 245.066L284.562 170.833L276.287 169.626L258.423 241.761Z" fill="#C5C5C5"/>
<path d="M295.124 168.92L266.722 164.775L266.295 167.696L294.697 171.841L295.124 168.92Z" fill="white"/>
<path d="M295.092 172.37L265.767 168.09L266.328 164.245L295.653 168.526L295.092 172.37ZM266.826 167.292L294.296 171.302L294.586 169.313L267.116 165.303L266.826 167.292Z" fill="#C5C5C5"/>
<path d="M299.898 131.053L272.97 127.123L272.544 130.044L299.472 133.974L299.898 131.053Z" fill="white"/>
<path d="M299.866 134.503L272.006 130.437L272.567 126.593L300.427 130.659L299.866 134.503ZM273.074 129.641L299.07 133.435L299.36 131.446L273.365 127.652L273.074 129.641Z" fill="#C5C5C5"/>
<path d="M297.839 133.727L274.17 130.272L269.085 165.111L292.754 168.565L297.839 133.727Z" fill="white"/>
<path d="M293.148 169.103L268.546 165.513L273.767 129.742L298.369 133.333L293.148 169.103ZM269.614 164.716L292.351 168.035L297.3 134.129L274.563 130.81L269.614 164.716Z" fill="#C5C5C5"/>
<path d="M285.323 161.206L278.3 160.181L280.759 143.339C281.588 138.156 288.468 139.16 287.781 144.364L285.323 161.206Z" fill="white"/>
<path d="M285.725 161.746L277.77 160.585L280.296 143.281C280.75 140.418 282.956 139.217 284.91 139.502C286.863 139.787 288.625 141.568 288.251 144.442L285.724 161.755L285.725 161.746ZM278.839 159.788L284.929 160.677L287.319 144.306C287.627 141.948 286.221 140.645 284.774 140.434C283.326 140.223 281.607 141.069 281.227 143.426L278.837 159.797L278.839 159.788Z" fill="#C5C5C5"/>
<path d="M301.085 28.6822L274.595 127.36L298.264 130.815L301.085 28.6822Z" fill="white"/>
<path d="M298.721 131.353L274.004 127.745L274.142 127.23L301.667 24.6957L298.722 131.344L298.721 131.353ZM275.187 126.966L297.809 130.268L300.504 32.6596L275.187 126.966Z" fill="#C5C5C5"/>
</svg>
